# Blender 5.0.0
# www.blender.org
mtllib background_coffee_table.mtl
o Circle
v 10.297693 1.689875 -3.476474
v 9.616938 1.689875 -3.294066
v 9.118590 1.689875 -2.795718
v 8.936182 1.689875 -2.114963
v 9.118590 1.689875 -1.434207
v 9.616938 1.689875 -0.935860
v 10.297693 1.689875 -0.753452
v 10.978449 1.689875 -0.935860
v 11.476796 1.689875 -1.434207
v 11.659204 1.689875 -2.114963
v 11.476796 1.689875 -2.795718
v 10.978449 1.689875 -3.294066
v 10.297693 1.689875 -2.195711
v 10.227763 1.689875 -2.155337
v 10.227763 1.689875 -2.074589
v 10.297693 1.689875 -2.034215
v 10.367623 1.689875 -2.074589
v 10.367623 1.689875 -2.155337
v 10.297693 1.782790 -3.476474
v 9.616938 1.782790 -3.294066
v 9.118590 1.782790 -2.795718
v 8.936182 1.782790 -2.114963
v 9.118590 1.782790 -1.434207
v 9.616938 1.782790 -0.935860
v 10.297693 1.782790 -0.753452
v 10.978449 1.782790 -0.935860
v 11.476796 1.782790 -1.434207
v 11.659204 1.782790 -2.114963
v 11.476796 1.782790 -2.795718
v 10.978449 1.782790 -3.294066
v 10.297693 0.113522 -2.195711
v 10.227763 0.113522 -2.155337
v 10.227763 0.113522 -2.074589
v 10.297693 0.113522 -2.034215
v 10.367623 0.113522 -2.074589
v 10.367623 0.113522 -2.155337
v 10.757254 0.113522 -2.910945
v 11.093676 0.113522 -2.574523
v 11.216814 0.113522 -2.114963
v 11.093676 0.113522 -1.655402
v 10.757254 0.113522 -1.318981
v 10.297693 0.113522 -1.195842
v 9.838133 0.113522 -1.318981
v 9.501711 0.113522 -1.655402
v 9.378572 0.113522 -2.114963
v 9.501711 0.113522 -2.574523
v 9.838133 0.113522 -2.910945
v 10.297693 0.113522 -3.034084
v 10.757254 0.013793 -2.910945
v 11.093676 0.013793 -2.574523
v 11.216814 0.013793 -2.114963
v 11.093676 0.013793 -1.655402
v 10.757254 0.013793 -1.318981
v 10.297693 0.013793 -1.195842
v 9.838133 0.013793 -1.318981
v 9.501711 0.013793 -1.655402
v 9.378572 0.013793 -2.114963
v 9.501711 0.013793 -2.574523
v 9.838133 0.013793 -2.910945
v 10.297693 0.013793 -3.034084
v 10.297693 1.782790 -2.114963
v 10.297693 0.013793 -2.114963
v 10.628903 2.292352 -1.750264
v 10.521391 1.808553 -1.832176
v 10.324478 2.292352 -1.350695
v 10.216966 1.808553 -1.432607
v 10.736416 1.808553 -1.668352
v 10.431991 1.808553 -1.268783
v 10.628903 2.289840 -1.750264
v 10.523315 1.807877 -1.830710
v 10.324478 2.289840 -1.350695
v 10.218890 1.807877 -1.431141
v 10.734491 1.807877 -1.669818
v 10.430066 1.807877 -1.270249
vn -0.0000 -1.0000 -0.0000
vn 0.5000 -0.0000 0.8660
vn -0.0000 -0.0000 1.0000
vn -0.8660 -0.0000 0.5000
vn -1.0000 -0.0000 -0.0000
vn 0.5000 -0.0000 -0.8660
vn 0.8660 -0.0000 -0.5000
vn -0.5000 -0.0000 -0.8660
vn -0.0000 -0.0000 -1.0000
vn 0.8660 -0.0000 0.5000
vn -0.5000 -0.0000 0.8660
vn -0.8660 -0.0000 -0.5000
vn 1.0000 -0.0000 -0.0000
vn -0.0000 1.0000 -0.0000
vn -0.7661 0.2691 -0.5837
vn 0.7661 0.2691 0.5837
vn 0.7669 -0.2655 0.5843
vn -0.7669 -0.2655 -0.5843
vn 0.6060 -0.0000 -0.7954
vn -0.2141 -0.9631 -0.1630
vn -0.6060 -0.0000 0.7954
vn 0.2140 -0.9631 0.1630
vt 0.652986 0.516463
vt 0.635271 0.453639
vt 0.697465 0.419519
vt 0.705308 0.415216
vt 0.767503 0.381096
vt 0.767503 0.453639
vt 0.683671 0.552734
vt 0.700336 0.425396
vt 0.704257 0.423245
vt 0.635271 0.381096
vt 0.719102 0.552734
vt 0.683671 0.282000
vt 0.698516 0.411490
vt 0.652986 0.318272
vt 0.702437 0.409339
vt 0.719102 0.282000
vt 0.749787 0.516463
vt 0.749787 0.318272
vt 0.881101 0.349558
vt 0.876713 0.349557
vt 0.876708 0.282000
vt 0.881096 0.282001
vt 0.872336 0.576913
vt 0.867948 0.576913
vt 0.867948 0.516478
vt 0.872336 0.516478
vt 0.867948 0.714509
vt 0.863560 0.714509
vt 0.863560 0.653195
vt 0.867948 0.653195
vt 0.867964 0.381120
vt 0.863576 0.381119
vt 0.863572 0.318286
vt 0.867960 0.318288
vt 0.881096 0.421279
vt 0.876708 0.421278
vt 0.872336 0.649314
vt 0.867948 0.649314
vt 0.863560 0.282000
vt 0.867948 0.282002
vt 0.867960 0.453663
vt 0.863572 0.453662
vt 0.867948 0.580711
vt 0.863560 0.580711
vt 0.863560 0.516478
vt 0.872336 0.714282
vt 0.867948 0.714282
vt 0.863560 0.516477
vt 0.767503 0.724373
vt 0.701387 0.688101
vt 0.767503 0.651830
vt 0.856769 0.434424
vt 0.859522 0.434424
vt 0.859522 0.586846
vt 0.856769 0.586846
vt 0.872674 0.282001
vt 0.876708 0.434422
vt 0.872674 0.434422
vt 0.856769 0.282000
vt 0.859639 0.282003
vt 0.859639 0.434424
vt 0.856769 0.434422
vt 0.863482 0.434424
vt 0.863482 0.586846
vt 0.877046 0.516478
vt 0.881025 0.516478
vt 0.881025 0.668900
vt 0.877046 0.668900
vt 0.863560 0.282002
vt 0.863560 0.434423
vt 0.767503 0.348897
vt 0.808214 0.375534
vt 0.767503 0.397869
vt 0.779462 0.306486
vt 0.809265 0.367506
vt 0.779462 0.440280
vt 0.811085 0.381411
vt 0.824095 0.464766
vt 0.800176 0.464766
vt 0.856769 0.397869
vt 0.844809 0.440280
vt 0.815006 0.379260
vt 0.858769 0.611341
vt 0.858761 0.586846
vt 0.863471 0.586847
vt 0.863479 0.611343
vt 0.800176 0.282000
vt 0.813186 0.365355
vt 0.824095 0.282000
vt 0.844809 0.306486
vt 0.816057 0.371232
vt 0.856769 0.348897
vt 0.877046 0.560336
vt 0.877046 0.609213
vt 0.872336 0.609213
vt 0.872336 0.560336
vt 0.876708 0.515302
vt 0.876712 0.466885
vt 0.881422 0.466886
vt 0.881418 0.515302
vt 0.858772 0.653758
vt 0.863482 0.653759
vt 0.867964 0.415686
vt 0.867964 0.374294
vt 0.872674 0.374294
vt 0.872674 0.415686
vt 0.877046 0.650011
vt 0.872336 0.650011
vt 0.876708 0.421279
vt 0.881418 0.421280
vt 0.867964 0.325362
vt 0.872674 0.325362
vt 0.858761 0.745135
vt 0.858769 0.702730
vt 0.863479 0.702731
vt 0.863471 0.745136
vt 0.877046 0.516478
vt 0.872336 0.516478
vt 0.867964 0.282000
vt 0.872674 0.282000
vt 0.844809 0.489252
vt 0.812136 0.556149
vt 0.824095 0.464766
vt 0.719102 0.823468
vt 0.683671 0.823468
vt 0.652986 0.787197
vt 0.635271 0.724373
vt 0.719102 0.552734
vt 0.749787 0.589006
vt 0.749787 0.787197
vt 0.635271 0.651830
vt 0.652986 0.589006
vt 0.779462 0.489252
vt 0.800176 0.464766
vt 0.824095 0.647531
vt 0.800176 0.647531
vt 0.856769 0.580634
vt 0.844809 0.623045
vt 0.856769 0.531663
vt 0.767503 0.580634
vt 0.767503 0.531663
vt 0.779462 0.623045
vt 0.217636 0.640437
vt 0.172461 0.635085
vt 0.172461 0.487961
vt 0.217636 0.493312
vt 0.127470 0.499171
vt 0.127470 0.641648
vt 0.082293 0.630438
vt 0.082293 0.487961
vt 0.172461 0.487961
vt 0.172461 0.630438
vt 0.127470 0.641491
vt 0.127470 0.499014
vt 0.262629 0.635085
vt 0.217636 0.640357
vt 0.217636 0.493233
vt 0.262629 0.487961
vt 0.172461 0.778203
vt 0.172461 0.640437
vt 0.172513 0.641117
vt 0.172654 0.778264
vt 0.259008 0.313707
vt 0.259008 0.462174
vt 0.258768 0.462174
vt 0.258768 0.313707
vt 0.217636 0.640357
vt 0.243328 0.757804
vt 0.243116 0.758186
vt 0.217703 0.641026
vt 0.192527 0.764608
vt 0.192362 0.764913
vt 0.259249 0.313707
vt 0.259249 0.462174
vt 0.217636 0.780466
vt 0.217884 0.780443
s 1
usemtl Material.006
f 2/1/1 1/2/1 13/3/1
f 16/4/1 7/5/1 6/6/1
f 3/7/1 2/1/1 14/8/1
f 6/6/1 15/9/1 16/4/1
f 13/3/1 1/2/1 12/10/1
f 4/11/1 3/7/1 14/8/1
f 10/12/1 18/13/1 11/14/1
f 14/8/1 2/1/1 13/3/1
f 10/12/1 17/15/1 18/13/1
f 15/9/1 4/11/1 14/8/1
f 9/16/1 17/15/1 10/12/1
f 15/9/1 5/17/1 4/11/1
f 16/4/1 17/15/1 8/18/1
f 5/17/1 15/9/1 6/6/1
f 13/3/1 12/10/1 18/13/1
f 8/19/2 26/20/2 25/21/3 7/22/3
f 8/18/1 17/15/1 9/16/1
f 8/18/1 7/5/1 16/4/1
f 18/13/1 12/10/1 11/14/1
f 5/23/4 23/24/4 22/25/5 4/26/5
f 12/27/6 30/28/6 29/29/7 11/30/7
f 2/31/8 20/32/8 19/33/9 1/34/9
f 9/35/10 27/36/10 26/20/2 8/19/2
f 6/37/11 24/38/11 23/24/4 5/23/4
f 1/34/9 19/33/9 30/39/6 12/40/6
f 3/41/12 21/42/12 20/32/8 2/31/8
f 10/43/13 28/44/13 27/45/10 9/25/10
f 7/46/3 25/47/3 24/38/11 6/37/11
f 4/25/5 22/48/5 21/42/12 3/41/12
f 11/30/7 29/29/7 28/44/13 10/43/13
f 26/49/14 61/50/14 25/51/14
f 13/52/6 18/53/6 36/54/6 31/55/6
f 17/56/2 16/21/2 34/57/2 35/58/2
f 15/59/5 14/60/5 32/61/5 33/62/5
f 18/53/13 17/63/13 35/64/13 36/54/13
f 16/65/11 15/66/11 33/67/11 34/68/11
f 14/60/8 13/69/8 31/70/8 32/61/8
f 47/71/14 31/72/14 48/73/14
f 46/74/14 32/75/14 47/71/14
f 31/72/14 37/76/14 48/73/14
f 36/77/14 39/78/14 38/79/14
f 31/72/14 36/77/14 37/76/14
f 41/80/14 40/81/14 35/82/14
f 48/83/9 37/84/6 49/85/6 60/86/9
f 36/77/14 38/79/14 37/76/14
f 45/87/14 33/88/14 32/75/14
f 35/82/14 39/78/14 36/77/14
f 44/89/14 33/88/14 45/87/14
f 35/82/14 40/81/14 39/78/14
f 44/89/14 43/90/14 33/88/14
f 34/91/14 41/80/14 35/82/14
f 32/75/14 31/72/14 47/71/14
f 46/74/14 45/87/14 32/75/14
f 43/90/14 34/91/14 33/88/14
f 41/80/14 34/91/14 42/92/14
f 34/91/14 43/90/14 42/92/14
f 43/93/11 44/94/4 56/95/4 55/96/11
f 40/97/10 41/98/2 53/99/2 52/100/10
f 47/101/8 48/83/9 60/86/9 59/102/8
f 37/103/6 38/104/7 50/105/7 49/106/6
f 44/94/4 45/107/5 57/108/5 56/95/4
f 41/98/2 42/109/3 54/110/3 53/99/2
f 38/104/7 39/111/13 51/112/13 50/105/7
f 45/113/5 46/114/12 58/115/12 57/116/5
f 42/117/3 43/93/11 55/96/11 54/118/3
f 39/111/13 40/119/10 52/120/10 51/112/13
f 46/114/12 47/101/8 59/102/8 58/115/12
f 53/121/1 62/122/1 52/123/1
f 61/50/14 28/124/14 29/125/14
f 61/50/14 30/126/14 19/127/14
f 23/128/14 24/129/14 61/50/14
f 27/130/14 61/50/14 26/49/14
f 61/50/14 24/129/14 25/51/14
f 29/125/14 30/126/14 61/50/14
f 61/50/14 27/130/14 28/124/14
f 19/127/14 20/131/14 61/50/14
f 20/131/14 21/132/14 61/50/14
f 61/50/14 21/132/14 22/7/14
f 22/7/14 23/128/14 61/50/14
f 50/133/1 51/134/1 62/122/1
f 62/122/1 57/135/1 58/136/1
f 62/122/1 55/137/1 56/138/1
f 54/139/1 62/122/1 53/121/1
f 62/122/1 51/134/1 52/123/1
f 62/122/1 60/140/1 49/141/1
f 49/141/1 50/133/1 62/122/1
f 58/136/1 59/142/1 62/122/1
f 59/142/1 60/140/1 62/122/1
f 56/138/1 57/135/1 62/122/1
f 62/122/1 54/139/1 55/137/1
s 0
f 63/143/15 64/144/15 66/145/15 65/146/15
f 63/147/16 65/148/16 68/149/16 67/150/16
f 69/151/17 71/152/17 72/153/17 70/154/17
f 69/155/18 73/156/18 74/157/18 71/158/18
f 64/159/19 63/160/19 69/161/19 70/162/19
f 66/163/20 64/164/20 70/165/20 72/166/20
f 65/167/21 66/168/21 72/169/21 71/170/21
f 63/160/19 67/171/19 73/172/19 69/161/19
f 67/164/22 68/163/22 74/173/22 73/174/22
f 68/175/21 65/167/21 71/170/21 74/176/21
