# Blender 5.0.0
# www.blender.org
mtllib under_cake.mtl
o Cylinder
v -0.000000 1.605478 -0.957370
v 0.000000 1.616277 -0.968220
v 0.000000 1.678454 -0.957370
v 0.000000 1.667656 -0.968220
v 0.111582 1.605478 -0.946380
v 0.113699 1.616277 -0.957022
v 0.111582 1.678454 -0.946380
v 0.113699 1.667656 -0.957022
v 0.218876 1.605478 -0.913832
v 0.223029 1.616277 -0.923857
v 0.218876 1.678454 -0.913832
v 0.223029 1.667656 -0.923857
v 0.317759 1.605478 -0.860978
v 0.323787 1.616277 -0.870000
v 0.317759 1.678454 -0.860978
v 0.323787 1.667656 -0.870000
v 0.404431 1.605478 -0.789849
v 0.412103 1.616277 -0.797521
v 0.404431 1.678454 -0.789849
v 0.412103 1.667656 -0.797521
v 0.475560 1.605478 -0.703177
v 0.484582 1.616277 -0.709206
v 0.475560 1.678454 -0.703177
v 0.484582 1.667656 -0.709206
v 0.528414 1.605478 -0.604295
v 0.538439 1.616277 -0.608447
v 0.528414 1.678454 -0.604295
v 0.538439 1.667656 -0.608447
v 0.560962 1.605478 -0.497000
v 0.571604 1.616277 -0.499117
v 0.560962 1.678454 -0.497000
v 0.571604 1.667656 -0.499117
v 0.571952 1.605478 -0.385418
v 0.582802 1.616277 -0.385418
v 0.571952 1.678454 -0.385418
v 0.582802 1.667656 -0.385418
v 0.560962 1.605478 -0.273836
v 0.571604 1.616277 -0.271719
v 0.560962 1.678454 -0.273836
v 0.571604 1.667656 -0.271719
v 0.528414 1.605478 -0.166542
v 0.538439 1.616277 -0.162389
v 0.528414 1.678454 -0.166542
v 0.538439 1.667656 -0.162389
v 0.475560 1.605478 -0.067659
v 0.484582 1.616277 -0.061631
v 0.475560 1.678454 -0.067659
v 0.484582 1.667656 -0.061631
v 0.404431 1.605478 0.019013
v 0.412103 1.616277 0.026685
v 0.404431 1.678454 0.019013
v 0.412103 1.667656 0.026685
v 0.317759 1.605478 0.090142
v 0.323787 1.616277 0.099164
v 0.317759 1.678454 0.090142
v 0.323787 1.667656 0.099164
v 0.218876 1.605478 0.142996
v 0.223029 1.616277 0.153021
v 0.218876 1.678454 0.142996
v 0.223029 1.667656 0.153021
v 0.111582 1.605478 0.175544
v 0.113699 1.616277 0.186186
v 0.111582 1.678454 0.175544
v 0.113699 1.667656 0.186186
v 0.000000 1.605478 0.186533
v 0.000000 1.616277 0.197384
v -0.000000 1.678454 0.186533
v 0.000000 1.667656 0.197384
v -0.111582 1.605478 0.175544
v -0.113699 1.616277 0.186186
v -0.111582 1.678454 0.175544
v -0.113699 1.667656 0.186186
v -0.218876 1.605478 0.142996
v -0.223029 1.616277 0.153021
v -0.218876 1.678454 0.142996
v -0.223029 1.667656 0.153021
v -0.317759 1.605478 0.090142
v -0.323787 1.616277 0.099164
v -0.317759 1.678454 0.090142
v -0.323787 1.667656 0.099164
v -0.404431 1.605478 0.019013
v -0.412103 1.616277 0.026685
v -0.404431 1.678454 0.019013
v -0.412103 1.667656 0.026685
v -0.475560 1.605478 -0.067659
v -0.484582 1.616277 -0.061631
v -0.475560 1.678454 -0.067659
v -0.484582 1.667656 -0.061631
v -0.528414 1.605478 -0.166542
v -0.538439 1.616277 -0.162389
v -0.528414 1.678454 -0.166542
v -0.538439 1.667656 -0.162389
v -0.560962 1.605478 -0.273836
v -0.571604 1.616277 -0.271719
v -0.560962 1.678454 -0.273836
v -0.571604 1.667656 -0.271719
v -0.571952 1.605478 -0.385418
v -0.582802 1.616277 -0.385418
v -0.571952 1.678454 -0.385418
v -0.582802 1.667656 -0.385418
v -0.560962 1.605478 -0.497000
v -0.571604 1.616277 -0.499117
v -0.560962 1.678454 -0.497000
v -0.571604 1.667656 -0.499117
v -0.528414 1.605478 -0.604295
v -0.538439 1.616277 -0.608447
v -0.528414 1.678454 -0.604295
v -0.538439 1.667656 -0.608447
v -0.475560 1.605478 -0.703177
v -0.484582 1.616277 -0.709206
v -0.475560 1.678454 -0.703177
v -0.484582 1.667656 -0.709206
v -0.404431 1.605478 -0.789849
v -0.412103 1.616277 -0.797521
v -0.404431 1.678454 -0.789849
v -0.412103 1.667656 -0.797521
v -0.317759 1.605478 -0.860978
v -0.323787 1.616277 -0.870000
v -0.317759 1.678454 -0.860978
v -0.323787 1.667656 -0.870000
v -0.218876 1.605478 -0.913832
v -0.223029 1.616277 -0.923857
v -0.218876 1.678454 -0.913832
v -0.223029 1.667656 -0.923857
v -0.111582 1.605478 -0.946380
v -0.113699 1.616277 -0.957022
v -0.111582 1.678454 -0.946380
v -0.113699 1.667656 -0.957022
v 0.000000 1.678454 -0.385418
v 0.000000 1.605478 -0.385418
vn 0.1376 -0.7088 -0.6918
vn -0.0000 -0.7088 -0.7054
vn 0.1376 0.7088 -0.6918
vn -0.0000 0.7088 -0.7054
vn 0.2699 -0.7088 -0.6517
vn 0.2699 0.7088 -0.6517
vn 0.3919 -0.7088 -0.5865
vn 0.3919 0.7088 -0.5865
vn 0.4988 -0.7088 -0.4988
vn 0.4988 0.7088 -0.4988
vn 0.5865 -0.7088 -0.3919
vn 0.5865 0.7088 -0.3919
vn 0.6517 -0.7088 -0.2699
vn 0.6517 0.7088 -0.2699
vn 0.6918 -0.7088 -0.1376
vn 0.6918 0.7088 -0.1376
vn 0.7054 -0.7088 -0.0000
vn 0.7054 0.7088 -0.0000
vn 0.6918 -0.7088 0.1376
vn 0.6918 0.7088 0.1376
vn 0.6517 -0.7088 0.2699
vn 0.6517 0.7088 0.2699
vn 0.5865 -0.7088 0.3919
vn 0.5865 0.7088 0.3919
vn 0.4988 -0.7088 0.4988
vn 0.4988 0.7088 0.4988
vn 0.3919 -0.7088 0.5865
vn 0.3919 0.7088 0.5865
vn 0.2699 -0.7088 0.6517
vn 0.2699 0.7088 0.6517
vn 0.1376 -0.7088 0.6918
vn 0.1376 0.7088 0.6918
vn -0.0000 -0.7088 0.7054
vn -0.0000 0.7088 0.7054
vn -0.1376 -0.7088 0.6918
vn -0.1376 0.7088 0.6918
vn -0.2699 -0.7088 0.6517
vn -0.2699 0.7088 0.6517
vn -0.3919 -0.7088 0.5865
vn -0.3919 0.7088 0.5865
vn -0.4988 -0.7088 0.4988
vn -0.4988 0.7088 0.4988
vn -0.5865 -0.7088 0.3919
vn -0.5865 0.7088 0.3919
vn -0.6517 -0.7088 0.2699
vn -0.6517 0.7088 0.2699
vn -0.6918 -0.7088 0.1376
vn -0.6918 0.7088 0.1376
vn -0.7054 -0.7088 -0.0000
vn -0.7054 0.7088 -0.0000
vn -0.6918 -0.7088 -0.1376
vn -0.6918 0.7088 -0.1376
vn -0.6517 -0.7088 -0.2699
vn -0.6517 0.7088 -0.2699
vn -0.5865 -0.7088 -0.3919
vn -0.5865 0.7088 -0.3919
vn -0.4988 -0.7088 -0.4988
vn -0.4988 0.7088 -0.4988
vn -0.3919 -0.7088 -0.5865
vn -0.3919 0.7088 -0.5865
vn -0.2699 -0.7088 -0.6517
vn -0.2699 0.7088 -0.6517
vn -0.1376 -0.7088 -0.6918
vn -0.1376 0.7088 -0.6918
vn -0.0000 -1.0000 -0.0000
vn -0.0000 -0.0000 -1.0000
vn 0.1951 -0.0000 -0.9808
vn -0.1951 -0.0000 -0.9808
vn -0.0000 1.0000 -0.0000
vn 0.3827 -0.0000 -0.9239
vn 0.5556 -0.0000 -0.8315
vn 0.7071 -0.0000 -0.7071
vn 0.8315 -0.0000 -0.5556
vn 0.9239 -0.0000 -0.3827
vn 0.9808 -0.0000 -0.1951
vn 1.0000 -0.0000 -0.0000
vn 0.9808 -0.0000 0.1951
vn 0.9239 -0.0000 0.3827
vn 0.8315 -0.0000 0.5556
vn 0.7071 -0.0000 0.7071
vn 0.5556 -0.0000 0.8315
vn 0.3827 -0.0000 0.9239
vn 0.1951 -0.0000 0.9808
vn -0.0000 -0.0000 1.0000
vn -0.1951 -0.0000 0.9808
vn -0.3827 -0.0000 0.9239
vn -0.5556 -0.0000 0.8315
vn -0.7071 -0.0000 0.7071
vn -0.8315 -0.0000 0.5556
vn -0.9239 -0.0000 0.3827
vn -0.9808 -0.0000 0.1951
vn -1.0000 -0.0000 -0.0000
vn -0.9808 -0.0000 -0.1951
vn -0.9239 -0.0000 -0.3827
vn -0.8315 -0.0000 -0.5556
vn -0.7071 -0.0000 -0.7071
vn -0.5556 -0.0000 -0.8315
vn -0.3827 -0.0000 -0.9239
vt 0.007052 0.258379
vt 0.012446 0.314914
vt 0.007052 0.315445
vt 0.425768 0.790484
vt 0.420010 0.733799
vt 0.430971 0.788906
vt 0.018185 0.202409
vt 0.012446 0.258910
vt 0.447677 0.843379
vt 0.452473 0.840816
vt 0.040024 0.149686
vt 0.023372 0.203982
vt 0.479485 0.890982
vt 0.483688 0.887533
vt 0.071728 0.102237
vt 0.044804 0.152241
vt 0.519969 0.931466
vt 0.523418 0.927263
vt 0.115518 0.066075
vt 0.075918 0.105675
vt 0.570135 0.958478
vt 0.567572 0.963273
vt 0.112080 0.061885
vt 0.162084 0.034960
vt 0.622045 0.979980
vt 0.620466 0.985183
vt 0.159529 0.030181
vt 0.213825 0.013529
vt 0.677152 0.990941
vt 0.676619 0.996352
vt 0.212252 0.008342
vt 0.268753 0.002603
vt 0.733338 0.990941
vt 0.733871 0.996352
vt 0.325288 -0.002791
vt 0.268222 -0.002791
vt 0.790023 0.985183
vt 0.788445 0.979980
vt 0.381258 0.008342
vt 0.324757 0.002603
vt 0.842918 0.963273
vt 0.840355 0.958478
vt 0.433980 0.030181
vt 0.379685 0.013529
vt 0.890521 0.931466
vt 0.887072 0.927263
vt 0.481429 0.061885
vt 0.431426 0.034960
vt 0.931005 0.890982
vt 0.926802 0.887533
vt 0.517592 0.105675
vt 0.477991 0.066075
vt 0.958017 0.840815
vt 0.962812 0.843379
vt 0.521781 0.102237
vt 0.548706 0.152241
vt 0.979519 0.788906
vt 0.984722 0.790484
vt 0.553486 0.149686
vt 0.570138 0.203982
vt 0.990480 0.733799
vt 0.995891 0.734332
vt 0.575324 0.202409
vt 0.581064 0.258910
vt 0.990480 0.677613
vt 0.995891 0.677080
vt 0.586457 0.315445
vt 0.586457 0.258378
vt 0.984722 0.620927
vt 0.979519 0.622506
vt 0.575324 0.371415
vt 0.581064 0.314914
vt 0.962812 0.568033
vt 0.958017 0.570596
vt 0.553486 0.424137
vt 0.570138 0.369842
vt 0.931005 0.520430
vt 0.926802 0.523879
vt 0.521782 0.471586
vt 0.548706 0.421583
vt 0.890521 0.479946
vt 0.887072 0.484149
vt 0.477991 0.507749
vt 0.517592 0.468148
vt 0.840354 0.452934
vt 0.842918 0.448138
vt 0.481430 0.511938
vt 0.431426 0.538863
vt 0.788445 0.431432
vt 0.790023 0.426229
vt 0.433981 0.543643
vt 0.379685 0.560295
vt 0.733338 0.420471
vt 0.733871 0.415059
vt 0.381258 0.565481
vt 0.324757 0.571221
vt 0.677152 0.420471
vt 0.676619 0.415059
vt 0.268222 0.576614
vt 0.325288 0.576614
vt 0.620466 0.426229
vt 0.622045 0.431432
vt 0.212252 0.565481
vt 0.268753 0.571221
vt 0.567572 0.448138
vt 0.570135 0.452934
vt 0.159529 0.543643
vt 0.213825 0.560295
vt 0.519969 0.479946
vt 0.523418 0.484149
vt 0.112080 0.511938
vt 0.162084 0.538863
vt 0.479485 0.520430
vt 0.483688 0.523879
vt 0.075918 0.468148
vt 0.115519 0.507749
vt 0.452473 0.570596
vt 0.447677 0.568033
vt 0.071728 0.471586
vt 0.044804 0.421583
vt 0.430971 0.622506
vt 0.425768 0.620928
vt 0.040024 0.424137
vt 0.023372 0.369842
vt 0.420010 0.677613
vt 0.414598 0.677080
vt 0.018185 0.371415
vt 0.414598 0.734332
vt 0.296755 0.286912
vt 1.000000 0.926015
vt 0.968750 0.573985
vt 1.000000 0.573985
vt 0.031250 0.926015
vt 0.000000 0.573985
vt 0.031250 0.573985
vt 0.705245 0.705706
vt 0.968750 0.926015
vt 0.937500 0.573985
vt 0.937500 0.926015
vt 0.906250 0.573985
vt 0.906250 0.926015
vt 0.875000 0.573985
vt 0.875000 0.926015
vt 0.843750 0.573985
vt 0.843750 0.926015
vt 0.812500 0.573985
vt 0.812500 0.926015
vt 0.781250 0.573985
vt 0.781250 0.926015
vt 0.750000 0.573985
vt 0.750000 0.926015
vt 0.718750 0.573985
vt 0.718750 0.926015
vt 0.687500 0.573985
vt 0.687500 0.926015
vt 0.656250 0.573985
vt 0.656250 0.926015
vt 0.625000 0.573985
vt 0.625000 0.926015
vt 0.593750 0.573985
vt 0.593750 0.926015
vt 0.562500 0.573985
vt 0.562500 0.926015
vt 0.531250 0.573985
vt 0.531250 0.926015
vt 0.500000 0.573985
vt 0.500000 0.926015
vt 0.468750 0.573985
vt 0.468750 0.926015
vt 0.437500 0.573985
vt 0.437500 0.926015
vt 0.406250 0.573985
vt 0.406250 0.926015
vt 0.375000 0.573985
vt 0.375000 0.926015
vt 0.343750 0.573985
vt 0.343750 0.926015
vt 0.312500 0.573985
vt 0.312500 0.926015
vt 0.281250 0.573985
vt 0.281250 0.926015
vt 0.250000 0.573985
vt 0.250000 0.926015
vt 0.218750 0.573985
vt 0.218750 0.926015
vt 0.187500 0.573985
vt 0.187500 0.926015
vt 0.156250 0.573985
vt 0.156250 0.926015
vt 0.125000 0.573985
vt 0.125000 0.926015
vt 0.093750 0.573985
vt 0.093750 0.926015
vt 0.062500 0.573985
vt 0.062500 0.926015
vt 0.000000 0.926015
s 1
usemtl Material.009
f 6/1/1 1/2/2 2/3/2
f 8/4/3 3/5/4 7/6/3
f 10/7/5 5/8/1 6/1/1
f 12/9/6 7/6/3 11/10/6
f 14/11/7 9/12/5 10/7/5
f 16/13/8 11/10/6 15/14/8
f 18/15/9 13/16/7 14/11/7
f 20/17/10 15/14/8 19/18/10
f 18/15/9 21/19/11 17/20/9
f 20/17/10 23/21/12 24/22/12
f 22/23/11 25/24/13 21/19/11
f 24/22/12 27/25/14 28/26/14
f 26/27/13 29/28/15 25/24/13
f 28/26/14 31/29/16 32/30/16
f 30/31/15 33/32/17 29/28/15
f 32/30/16 35/33/18 36/34/18
f 38/35/19 33/32/17 34/36/17
f 40/37/20 35/33/18 39/38/20
f 42/39/21 37/40/19 38/35/19
f 44/41/22 39/38/20 43/42/22
f 46/43/23 41/44/21 42/39/21
f 48/45/24 43/42/22 47/46/24
f 50/47/25 45/48/23 46/43/23
f 52/49/26 47/46/24 51/50/26
f 50/47/25 53/51/27 49/52/25
f 52/49/26 55/53/28 56/54/28
f 54/55/27 57/56/29 53/51/27
f 56/54/28 59/57/30 60/58/30
f 58/59/29 61/60/31 57/56/29
f 60/58/30 63/61/32 64/62/32
f 62/63/31 65/64/33 61/60/31
f 64/62/32 67/65/34 68/66/34
f 70/67/35 65/64/33 66/68/33
f 72/69/36 67/65/34 71/70/36
f 74/71/37 69/72/35 70/67/35
f 76/73/38 71/70/36 75/74/38
f 78/75/39 73/76/37 74/71/37
f 80/77/40 75/74/38 79/78/40
f 82/79/41 77/80/39 78/75/39
f 84/81/42 79/78/40 83/82/42
f 82/79/41 85/83/43 81/84/41
f 84/81/42 87/85/44 88/86/44
f 86/87/43 89/88/45 85/83/43
f 88/86/44 91/89/46 92/90/46
f 90/91/45 93/92/47 89/88/45
f 92/90/46 95/93/48 96/94/48
f 94/95/47 97/96/49 93/92/47
f 96/94/48 99/97/50 100/98/50
f 102/99/51 97/96/49 98/100/49
f 104/101/52 99/97/50 103/102/52
f 106/103/53 101/104/51 102/99/51
f 108/105/54 103/102/52 107/106/54
f 110/107/55 105/108/53 106/103/53
f 112/109/56 107/106/54 111/110/56
f 114/111/57 109/112/55 110/107/55
f 116/113/58 111/110/56 115/114/58
f 114/111/57 117/115/59 113/116/57
f 116/113/58 119/117/60 120/118/60
f 118/119/59 121/120/61 117/115/59
f 120/118/60 123/121/62 124/122/62
f 122/123/61 125/124/63 121/120/61
f 124/122/62 127/125/64 128/126/64
f 126/127/63 1/2/2 125/124/63
f 128/126/64 3/5/4 4/128/4
f 33/32/65 37/40/65 130/129/65
f 4/130/66 6/131/67 2/132/66
f 128/133/68 2/134/66 126/135/68
f 87/85/69 83/82/69 129/136/69
f 8/137/67 10/138/70 6/131/67
f 12/139/70 14/140/71 10/138/70
f 16/141/71 18/142/72 14/140/71
f 20/143/72 22/144/73 18/142/72
f 24/145/73 26/146/74 22/144/73
f 28/147/74 30/148/75 26/146/74
f 32/149/75 34/150/76 30/148/75
f 36/151/76 38/152/77 34/150/76
f 40/153/77 42/154/78 38/152/77
f 44/155/78 46/156/79 42/154/78
f 48/157/79 50/158/80 46/156/79
f 52/159/80 54/160/81 50/158/80
f 56/161/81 58/162/82 54/160/81
f 60/163/82 62/164/83 58/162/82
f 64/165/83 66/166/84 62/164/83
f 68/167/84 70/168/85 66/166/84
f 72/169/85 74/170/86 70/168/85
f 76/171/86 78/172/87 74/170/86
f 80/173/87 82/174/88 78/172/87
f 84/175/88 86/176/89 82/174/88
f 88/177/89 90/178/90 86/176/89
f 92/179/90 94/180/91 90/178/90
f 96/181/91 98/182/92 94/180/91
f 100/183/92 102/184/93 98/182/92
f 104/185/93 106/186/94 102/184/93
f 108/187/94 110/188/95 106/186/94
f 112/189/95 114/190/96 110/188/95
f 116/191/96 118/192/97 114/190/96
f 120/193/97 122/194/98 118/192/97
f 124/195/98 126/135/68 122/194/98
f 23/21/69 19/18/69 129/136/69
f 55/53/69 51/50/69 129/136/69
f 129/136/69 15/14/69 11/10/69
f 79/78/69 129/136/69 83/82/69
f 129/136/69 111/110/69 107/106/69
f 103/102/69 129/136/69 107/106/69
f 103/102/69 99/97/69 129/136/69
f 99/97/69 95/93/69 129/136/69
f 95/93/69 91/89/69 129/136/69
f 91/89/69 87/85/69 129/136/69
f 19/18/69 15/14/69 129/136/69
f 129/136/69 47/46/69 43/42/69
f 43/42/69 39/38/69 129/136/69
f 39/38/69 35/33/69 129/136/69
f 35/33/69 31/29/69 129/136/69
f 31/29/69 27/25/69 129/136/69
f 27/25/69 23/21/69 129/136/69
f 51/50/69 47/46/69 129/136/69
f 129/136/69 79/78/69 75/74/69
f 75/74/69 71/70/69 129/136/69
f 71/70/69 67/65/69 129/136/69
f 67/65/69 63/61/69 129/136/69
f 63/61/69 59/57/69 129/136/69
f 59/57/69 55/53/69 129/136/69
f 11/10/69 7/6/69 129/136/69
f 7/6/69 3/5/69 129/136/69
f 3/5/69 127/125/69 129/136/69
f 127/125/69 123/121/69 129/136/69
f 123/121/69 119/117/69 129/136/69
f 119/117/69 115/114/69 129/136/69
f 115/114/69 111/110/69 129/136/69
f 101/104/65 105/108/65 130/129/65
f 121/120/65 125/124/65 130/129/65
f 73/76/65 77/80/65 130/129/65
f 6/1/1 5/8/1 1/2/2
f 8/4/3 4/128/4 3/5/4
f 10/7/5 9/12/5 5/8/1
f 12/9/6 8/4/3 7/6/3
f 14/11/7 13/16/7 9/12/5
f 16/13/8 12/9/6 11/10/6
f 18/15/9 17/20/9 13/16/7
f 20/17/10 16/13/8 15/14/8
f 18/15/9 22/23/11 21/19/11
f 20/17/10 19/18/10 23/21/12
f 22/23/11 26/27/13 25/24/13
f 24/22/12 23/21/12 27/25/14
f 26/27/13 30/31/15 29/28/15
f 28/26/14 27/25/14 31/29/16
f 30/31/15 34/36/17 33/32/17
f 32/30/16 31/29/16 35/33/18
f 38/35/19 37/40/19 33/32/17
f 40/37/20 36/34/18 35/33/18
f 42/39/21 41/44/21 37/40/19
f 44/41/22 40/37/20 39/38/20
f 46/43/23 45/48/23 41/44/21
f 48/45/24 44/41/22 43/42/22
f 50/47/25 49/52/25 45/48/23
f 52/49/26 48/45/24 47/46/24
f 50/47/25 54/55/27 53/51/27
f 52/49/26 51/50/26 55/53/28
f 54/55/27 58/59/29 57/56/29
f 56/54/28 55/53/28 59/57/30
f 58/59/29 62/63/31 61/60/31
f 60/58/30 59/57/30 63/61/32
f 62/63/31 66/68/33 65/64/33
f 64/62/32 63/61/32 67/65/34
f 70/67/35 69/72/35 65/64/33
f 72/69/36 68/66/34 67/65/34
f 74/71/37 73/76/37 69/72/35
f 76/73/38 72/69/36 71/70/36
f 78/75/39 77/80/39 73/76/37
f 80/77/40 76/73/38 75/74/38
f 82/79/41 81/84/41 77/80/39
f 84/81/42 80/77/40 79/78/40
f 82/79/41 86/87/43 85/83/43
f 84/81/42 83/82/42 87/85/44
f 86/87/43 90/91/45 89/88/45
f 88/86/44 87/85/44 91/89/46
f 90/91/45 94/95/47 93/92/47
f 92/90/46 91/89/46 95/93/48
f 94/95/47 98/100/49 97/96/49
f 96/94/48 95/93/48 99/97/50
f 102/99/51 101/104/51 97/96/49
f 104/101/52 100/98/50 99/97/50
f 106/103/53 105/108/53 101/104/51
f 108/105/54 104/101/52 103/102/52
f 110/107/55 109/112/55 105/108/53
f 112/109/56 108/105/54 107/106/54
f 114/111/57 113/116/57 109/112/55
f 116/113/58 112/109/56 111/110/56
f 114/111/57 118/119/59 117/115/59
f 116/113/58 115/114/58 119/117/60
f 118/119/59 122/123/61 121/120/61
f 120/118/60 119/117/60 123/121/62
f 122/123/61 126/127/63 125/124/63
f 124/122/62 123/121/62 127/125/64
f 126/127/63 2/3/2 1/2/2
f 128/126/64 127/125/64 3/5/4
f 45/48/65 130/129/65 41/44/65
f 130/129/65 17/20/65 21/19/65
f 41/44/65 130/129/65 37/40/65
f 21/19/65 25/24/65 130/129/65
f 25/24/65 29/28/65 130/129/65
f 29/28/65 33/32/65 130/129/65
f 4/130/66 8/137/67 6/131/67
f 128/133/68 4/196/66 2/134/66
f 8/137/67 12/139/70 10/138/70
f 12/139/70 16/141/71 14/140/71
f 16/141/71 20/143/72 18/142/72
f 20/143/72 24/145/73 22/144/73
f 24/145/73 28/147/74 26/146/74
f 28/147/74 32/149/75 30/148/75
f 32/149/75 36/151/76 34/150/76
f 36/151/76 40/153/77 38/152/77
f 40/153/77 44/155/78 42/154/78
f 44/155/78 48/157/79 46/156/79
f 48/157/79 52/159/80 50/158/80
f 52/159/80 56/161/81 54/160/81
f 56/161/81 60/163/82 58/162/82
f 60/163/82 64/165/83 62/164/83
f 64/165/83 68/167/84 66/166/84
f 68/167/84 72/169/85 70/168/85
f 72/169/85 76/171/86 74/170/86
f 76/171/86 80/173/87 78/172/87
f 80/173/87 84/175/88 82/174/88
f 84/175/88 88/177/89 86/176/89
f 88/177/89 92/179/90 90/178/90
f 92/179/90 96/181/91 94/180/91
f 96/181/91 100/183/92 98/182/92
f 100/183/92 104/185/93 102/184/93
f 104/185/93 108/187/94 106/186/94
f 108/187/94 112/189/95 110/188/95
f 112/189/95 116/191/96 114/190/96
f 116/191/96 120/193/97 118/192/97
f 120/193/97 124/195/98 122/194/98
f 124/195/98 128/133/68 126/135/68
f 105/108/65 109/112/65 130/129/65
f 130/129/65 81/84/65 85/83/65
f 85/83/65 89/88/65 130/129/65
f 89/88/65 93/92/65 130/129/65
f 93/92/65 97/96/65 130/129/65
f 97/96/65 101/104/65 130/129/65
f 125/124/65 1/2/65 130/129/65
f 1/2/65 5/8/65 130/129/65
f 5/8/65 9/12/65 130/129/65
f 9/12/65 13/16/65 130/129/65
f 13/16/65 17/20/65 130/129/65
f 130/129/65 109/112/65 113/116/65
f 113/116/65 117/115/65 130/129/65
f 117/115/65 121/120/65 130/129/65
f 77/80/65 81/84/65 130/129/65
f 130/129/65 45/48/65 49/52/65
f 49/52/65 53/51/65 130/129/65
f 53/51/65 57/56/65 130/129/65
f 57/56/65 61/60/65 130/129/65
f 61/60/65 65/64/65 130/129/65
f 65/64/65 69/72/65 130/129/65
f 69/72/65 73/76/65 130/129/65
